<svg width="21" height="20" viewBox="0 0 21 20" fill="none" xmlns="http://www.w3.org/2000/svg">
<path d="M8.75 1.76025C6.67893 1.76025 5 3.43919 5 5.51025C5 7.58132 6.67893 9.26025 8.75 9.26025C10.8211 9.26025 12.5 7.58132 12.5 5.51025C12.5 3.43919 10.8211 1.76025 8.75 1.76025Z" stroke="black" stroke-linecap="round" stroke-linejoin="round"/>
<path d="M4.75 11.2603C2.67893 11.2603 1 12.9392 1 15.0103V16.1985C1 16.9518 1.54588 17.594 2.28927 17.7154C6.5681 18.414 10.9319 18.414 15.2107 17.7154C15.9541 17.594 16.5 16.9518 16.5 16.1985V15.0103C16.5 12.9392 14.8211 11.2603 12.75 11.2603H12.4091C12.2246 11.2603 12.0413 11.2894 11.8659 11.3467L11.0004 11.6293C9.53813 12.1068 7.96187 12.1068 6.49959 11.6293L5.63407 11.3467C5.45869 11.2894 5.27536 11.2603 5.09087 11.2603H4.75Z" stroke="black" stroke-linecap="round" stroke-linejoin="round"/>
</svg>
