<svg id="visual" viewBox="0 0 900 600" width="900" height="600" xmlns="http://www.w3.org/2000/svg" xmlns:xlink="http://www.w3.org/1999/xlink" version="1.1"><rect x="0" y="0" width="900" height="600" fill="#266AA1"></rect><defs><linearGradient id="grad1_0" x1="33.3%" y1="0%" x2="100%" y2="100%"><stop offset="20%" stop-color="#266aa1" stop-opacity="1"></stop><stop offset="80%" stop-color="#266aa1" stop-opacity="1"></stop></linearGradient></defs><defs><linearGradient id="grad2_0" x1="0%" y1="0%" x2="66.7%" y2="100%"><stop offset="20%" stop-color="#266aa1" stop-opacity="1"></stop><stop offset="80%" stop-color="#266aa1" stop-opacity="1"></stop></linearGradient></defs><g transform="translate(900, 0)"><path d="M0 540.8C-30.6 574.3 -61.1 607.7 -64.6 532.1C-68.1 456.5 -44.5 271.7 -66.1 268C-87.6 264.2 -154.3 441.5 -184.4 486.2C-214.5 531 -207.9 443.2 -209.6 399.3C-211.3 355.5 -221.4 355.5 -257.3 372.8C-293.3 390.2 -355.1 424.9 -344.2 388.5C-333.3 352.1 -249.7 244.5 -229 202.9C-208.4 161.3 -250.7 185.6 -281.5 194.3C-312.2 203 -331.5 196 -375.4 197C-419.4 198.1 -488 207.1 -505.7 191.8C-523.4 176.5 -490.3 137 -429.2 105.8C-368 74.6 -278.9 51.8 -292.8 35.6C-306.8 19.3 -423.8 9.7 -540.8 0L0 0Z" fill="#70A1C9"></path></g><g transform="translate(0, 600)"><path d="M0 -540.8C17.6 -500.1 35.3 -459.3 54.5 -448.7C73.7 -438.1 94.5 -457.7 110.1 -446.6C125.7 -435.5 136 -393.7 132.3 -348.8C128.5 -303.8 110.7 -255.8 153.8 -293.1C196.9 -330.4 300.9 -453 296 -428.8C291.1 -404.6 177.3 -233.7 187 -211.1C196.7 -188.5 329.8 -314.3 404.8 -358.6C479.8 -403 496.8 -365.9 441.1 -304.5C385.5 -243 257.3 -157.2 260.3 -136.6C263.4 -116.1 397.7 -160.9 418.9 -158.9C440.1 -156.9 348.3 -108.1 350.5 -86.4C352.7 -64.7 449 -70.1 496.4 -60.3C543.7 -50.4 542.3 -25.2 540.8 0L0 0Z" fill="#70A1C9"></path></g></svg>