<svg id="visual" viewBox="0 0 900 600" width="900" height="600" xmlns="http://www.w3.org/2000/svg" xmlns:xlink="http://www.w3.org/1999/xlink" version="1.1"><path d="M761 0L521 0L521 26L852 26L852 52L500 52L500 78L533 78L533 104L531 104L531 130L600 130L600 157L512 157L512 183L681 183L681 209L632 209L632 235L524 235L524 261L768 261L768 287L664 287L664 313L501 313L501 339L725 339L725 365L803 365L803 391L797 391L797 417L880 417L880 443L693 443L693 470L763 470L763 496L810 496L810 522L557 522L557 548L594 548L594 574L662 574L662 600L0 600L0 574L0 574L0 548L0 548L0 522L0 522L0 496L0 496L0 470L0 470L0 443L0 443L0 417L0 417L0 391L0 391L0 365L0 365L0 339L0 339L0 313L0 313L0 287L0 287L0 261L0 261L0 235L0 235L0 209L0 209L0 183L0 183L0 157L0 157L0 130L0 130L0 104L0 104L0 78L0 78L0 52L0 52L0 26L0 26L0 0L0 0Z" fill="#1a252f"></path><path d="M384 0L724 0L724 26L739 26L739 52L520 52L520 78L475 78L475 104L330 104L330 130L424 130L424 157L397 157L397 183L699 183L699 209L410 209L410 235L386 235L386 261L498 261L498 287L748 287L748 313L582 313L582 339L331 339L331 365L339 365L339 391L563 391L563 417L486 417L486 443L335 443L335 470L445 470L445 496L618 496L618 522L623 522L623 548L567 548L567 574L419 574L419 600L0 600L0 574L0 574L0 548L0 548L0 522L0 522L0 496L0 496L0 470L0 470L0 443L0 443L0 417L0 417L0 391L0 391L0 365L0 365L0 339L0 339L0 313L0 313L0 287L0 287L0 261L0 261L0 235L0 235L0 209L0 209L0 183L0 183L0 157L0 157L0 130L0 130L0 104L0 104L0 78L0 78L0 52L0 52L0 26L0 26L0 0L0 0Z" fill="#1e3549"></path><path d="M284 0L506 0L506 26L475 26L475 52L259 52L259 78L286 78L286 104L512 104L512 130L400 130L400 157L248 157L248 183L371 183L371 209L473 209L473 235L562 235L562 261L377 261L377 287L215 287L215 313L517 313L517 339L342 339L342 365L437 365L437 391L350 391L350 417L572 417L572 443L265 443L265 470L385 470L385 496L410 496L410 522L402 522L402 548L292 548L292 574L380 574L380 600L0 600L0 574L0 574L0 548L0 548L0 522L0 522L0 496L0 496L0 470L0 470L0 443L0 443L0 417L0 417L0 391L0 391L0 365L0 365L0 339L0 339L0 313L0 313L0 287L0 287L0 261L0 261L0 235L0 235L0 209L0 209L0 183L0 183L0 157L0 157L0 130L0 130L0 104L0 104L0 78L0 78L0 52L0 52L0 26L0 26L0 0L0 0Z" fill="#214665"></path><path d="M155 0L311 0L311 26L282 26L282 52L154 52L154 78L318 78L318 104L106 104L106 130L112 130L112 157L112 157L112 183L152 183L152 209L203 209L203 235L241 235L241 261L290 261L290 287L342 287L342 313L132 313L132 339L300 339L300 365L246 365L246 391L366 391L366 417L247 417L247 443L261 443L261 470L283 470L283 496L136 496L136 522L126 522L126 548L339 548L339 574L402 574L402 600L0 600L0 574L0 574L0 548L0 548L0 522L0 522L0 496L0 496L0 470L0 470L0 443L0 443L0 417L0 417L0 391L0 391L0 365L0 365L0 339L0 339L0 313L0 313L0 287L0 287L0 261L0 261L0 235L0 235L0 209L0 209L0 183L0 183L0 157L0 157L0 130L0 130L0 104L0 104L0 78L0 78L0 52L0 52L0 26L0 26L0 0L0 0Z" fill="#235882"></path><path d="M40 0L91 0L91 26L127 26L127 52L249 52L249 78L10 78L10 104L206 104L206 130L194 130L194 157L183 157L183 183L144 183L144 209L100 209L100 235L87 235L87 261L211 261L211 287L51 287L51 313L78 313L78 339L157 339L157 365L50 365L50 391L187 391L187 417L75 417L75 443L64 443L64 470L296 470L296 496L86 496L86 522L224 522L224 548L168 548L168 574L54 574L54 600L0 600L0 574L0 574L0 548L0 548L0 522L0 522L0 496L0 496L0 470L0 470L0 443L0 443L0 417L0 417L0 391L0 391L0 365L0 365L0 339L0 339L0 313L0 313L0 287L0 287L0 261L0 261L0 235L0 235L0 209L0 209L0 183L0 183L0 157L0 157L0 130L0 130L0 104L0 104L0 78L0 78L0 52L0 52L0 26L0 26L0 0L0 0Z" fill="#266aa1"></path></svg>