<svg id="visual" viewBox="0 0 900 600" width="900" height="600" xmlns="http://www.w3.org/2000/svg" xmlns:xlink="http://www.w3.org/1999/xlink" version="1.1"><path d="M0 127L13.7 140C27.3 153 54.7 179 82 199C109.3 219 136.7 233 163.8 228C191 223 218 199 245.2 193C272.3 187 299.7 199 327 196C354.3 193 381.7 175 409 168C436.3 161 463.7 165 491 172C518.3 179 545.7 189 573 193C600.3 197 627.7 195 654.8 196C682 197 709 201 736.2 191C763.3 181 790.7 157 818 144C845.3 131 872.7 129 886.3 128L900 127L900 0L886.3 0C872.7 0 845.3 0 818 0C790.7 0 763.3 0 736.2 0C709 0 682 0 654.8 0C627.7 0 600.3 0 573 0C545.7 0 518.3 0 491 0C463.7 0 436.3 0 409 0C381.7 0 354.3 0 327 0C299.7 0 272.3 0 245.2 0C218 0 191 0 163.8 0C136.7 0 109.3 0 82 0C54.7 0 27.3 0 13.7 0L0 0Z" fill="#5c8ebb"></path><path d="M0 337L13.7 339C27.3 341 54.7 345 82 350C109.3 355 136.7 361 163.8 366C191 371 218 375 245.2 364C272.3 353 299.7 327 327 324C354.3 321 381.7 341 409 338C436.3 335 463.7 309 491 306C518.3 303 545.7 323 573 341C600.3 359 627.7 375 654.8 369C682 363 709 335 736.2 326C763.3 317 790.7 327 818 331C845.3 335 872.7 333 886.3 332L900 331L900 125L886.3 126C872.7 127 845.3 129 818 142C790.7 155 763.3 179 736.2 189C709 199 682 195 654.8 194C627.7 193 600.3 195 573 191C545.7 187 518.3 177 491 170C463.7 163 436.3 159 409 166C381.7 173 354.3 191 327 194C299.7 197 272.3 185 245.2 191C218 197 191 221 163.8 226C136.7 231 109.3 217 82 197C54.7 177 27.3 151 13.7 138L0 125Z" fill="#236396"></path><path d="M0 373L13.7 383C27.3 393 54.7 413 82 423C109.3 433 136.7 433 163.8 440C191 447 218 461 245.2 453C272.3 445 299.7 415 327 406C354.3 397 381.7 409 409 405C436.3 401 463.7 381 491 381C518.3 381 545.7 401 573 415C600.3 429 627.7 437 654.8 425C682 413 709 381 736.2 378C763.3 375 790.7 401 818 409C845.3 417 872.7 407 886.3 402L900 397L900 329L886.3 330C872.7 331 845.3 333 818 329C790.7 325 763.3 315 736.2 324C709 333 682 361 654.8 367C627.7 373 600.3 357 573 339C545.7 321 518.3 301 491 304C463.7 307 436.3 333 409 336C381.7 339 354.3 319 327 322C299.7 325 272.3 351 245.2 362C218 373 191 369 163.8 364C136.7 359 109.3 353 82 348C54.7 343 27.3 339 13.7 337L0 335Z" fill="#1c4e76"></path><path d="M0 451L13.7 461C27.3 471 54.7 491 82 505C109.3 519 136.7 527 163.8 532C191 537 218 539 245.2 528C272.3 517 299.7 493 327 482C354.3 471 381.7 473 409 473C436.3 473 463.7 471 491 479C518.3 487 545.7 505 573 514C600.3 523 627.7 523 654.8 513C682 503 709 483 736.2 481C763.3 479 790.7 495 818 497C845.3 499 872.7 487 886.3 481L900 475L900 395L886.3 400C872.7 405 845.3 415 818 407C790.7 399 763.3 373 736.2 376C709 379 682 411 654.8 423C627.7 435 600.3 427 573 413C545.7 399 518.3 379 491 379C463.7 379 436.3 399 409 403C381.7 407 354.3 395 327 404C299.7 413 272.3 443 245.2 451C218 459 191 445 163.8 438C136.7 431 109.3 431 82 421C54.7 411 27.3 391 13.7 381L0 371Z" fill="#236396"></path><path d="M0 601L13.7 601C27.3 601 54.7 601 82 601C109.3 601 136.7 601 163.8 601C191 601 218 601 245.2 601C272.3 601 299.7 601 327 601C354.3 601 381.7 601 409 601C436.3 601 463.7 601 491 601C518.3 601 545.7 601 573 601C600.3 601 627.7 601 654.8 601C682 601 709 601 736.2 601C763.3 601 790.7 601 818 601C845.3 601 872.7 601 886.3 601L900 601L900 473L886.3 479C872.7 485 845.3 497 818 495C790.7 493 763.3 477 736.2 479C709 481 682 501 654.8 511C627.7 521 600.3 521 573 512C545.7 503 518.3 485 491 477C463.7 469 436.3 471 409 471C381.7 471 354.3 469 327 480C299.7 491 272.3 515 245.2 526C218 537 191 535 163.8 530C136.7 525 109.3 517 82 503C54.7 489 27.3 469 13.7 459L0 449Z" fill="#5c8ebb"></path></svg>