<svg id="visual" viewBox="0 0 900 600" width="900" height="600" xmlns="http://www.w3.org/2000/svg" xmlns:xlink="http://www.w3.org/1999/xlink" version="1.1"><path d="M0 198L11.5 228.8C23 259.7 46 321.3 69 328.8C92 336.3 115 289.7 138.2 273C161.3 256.3 184.7 269.7 207.8 291C231 312.3 254 341.7 277 344.8C300 348 323 325 346 304.7C369 284.3 392 266.7 415.2 285C438.3 303.3 461.7 357.7 484.8 375.8C508 394 531 376 554 339.2C577 302.3 600 246.7 623 221.5C646 196.3 669 201.7 692.2 222.7C715.3 243.7 738.7 280.3 761.8 309.8C785 339.3 808 361.7 831 340.5C854 319.3 877 254.7 888.5 222.3L900 190L900 601L888.5 601C877 601 854 601 831 601C808 601 785 601 761.8 601C738.7 601 715.3 601 692.2 601C669 601 646 601 623 601C600 601 577 601 554 601C531 601 508 601 484.8 601C461.7 601 438.3 601 415.2 601C392 601 369 601 346 601C323 601 300 601 277 601C254 601 231 601 207.8 601C184.7 601 161.3 601 138.2 601C115 601 92 601 69 601C46 601 23 601 11.5 601L0 601Z" fill="#266AA1" stroke-linecap="round" stroke-linejoin="miter"></path></svg>