<svg id="visual" viewBox="0 0 900 600" width="900" height="600" xmlns="http://www.w3.org/2000/svg" xmlns:xlink="http://www.w3.org/1999/xlink" version="1.1"><g><g transform="translate(634 71)"><path d="M56.5 -18.6C64.6 6.7 56.7 36.9 37.5 50.6C18.3 64.3 -12.2 61.6 -31.9 46.6C-51.6 31.7 -60.5 4.5 -53.4 -19.3C-46.3 -43.1 -23.1 -63.7 0.5 -63.9C24.2 -64.1 48.3 -43.8 56.5 -18.6Z" fill="#000000"></path></g><g transform="translate(219 294)"><path d="M41.6 -12.6C46.8 2.3 38.9 22.5 24.1 33.2C9.3 44 -12.3 45.4 -26.2 35.5C-40 25.6 -46 4.3 -40.3 -11.3C-34.6 -27 -17.3 -37 0.5 -37.2C18.2 -37.3 36.5 -27.6 41.6 -12.6Z" fill="#000000"></path></g><g transform="translate(320 568)"><path d="M48.2 -16.9C53.6 1 43.1 22.9 25.5 35.8C7.9 48.8 -16.7 52.9 -31.9 42.2C-47 31.6 -52.7 6.3 -45.8 -13.6C-38.9 -33.6 -19.5 -48.2 1 -48.5C21.4 -48.8 42.8 -34.8 48.2 -16.9Z" fill="#000000"></path></g><g transform="translate(882 587)"><path d="M30.7 -9.5C35 3.2 30.3 19.3 20 26.6C9.7 33.8 -6.3 32.3 -17.1 24.3C-28 16.3 -33.6 1.8 -29.8 -10.2C-26.1 -22.2 -13.1 -31.7 0.1 -31.7C13.2 -31.7 26.4 -22.3 30.7 -9.5Z" fill="#000000"></path></g><g transform="translate(11 455)"><path d="M27.2 -9.8C31.2 3.4 27.6 18.2 17.9 25.3C8.3 32.5 -7.3 32 -18.6 24.2C-29.9 16.3 -36.8 1.1 -33 -11.9C-29.1 -24.9 -14.6 -35.5 -1.5 -35C11.6 -34.6 23.3 -22.9 27.2 -9.8Z" fill="#000000"></path></g><g transform="translate(682 526)"><path d="M48.3 -15.3C54 1.6 43.9 24.1 27.7 35.2C11.4 46.3 -10.9 46.1 -26.1 35.2C-41.3 24.4 -49.3 2.9 -43.7 -13.9C-38.2 -30.7 -19.1 -42.8 1.1 -43.1C21.3 -43.5 42.7 -32.2 48.3 -15.3Z" fill="#000000"></path></g><g transform="translate(72 30)"><path d="M32.7 -10.8C37.8 5 34.2 23.5 22.8 31.9C11.5 40.3 -7.6 38.5 -20.9 28.8C-34.2 19.1 -41.8 1.5 -37.4 -13.4C-32.9 -28.3 -16.5 -40.6 -1.3 -40.2C13.8 -39.7 27.6 -26.6 32.7 -10.8Z" fill="#000000"></path></g><g transform="translate(863 13)"><path d="M34.2 -11.1C38.7 2.5 32.6 19.6 21.4 27.3C10.1 34.9 -6.4 33.2 -18.3 24.7C-30.1 16.2 -37.3 0.9 -33.4 -11.9C-29.6 -24.8 -14.8 -35.1 0 -35.1C14.9 -35.1 29.8 -24.8 34.2 -11.1Z" fill="#000000"></path></g><g transform="translate(446 283)"><path d="M33.1 -11.5C37.9 3.8 33.1 21.4 21.7 29.8C10.2 38.1 -8 37.1 -21.7 27.7C-35.3 18.2 -44.5 0.4 -40.1 -14.4C-35.7 -29.1 -17.9 -40.9 -1.8 -40.3C14.2 -39.7 28.4 -26.8 33.1 -11.5Z" fill="#000000"></path></g><g transform="translate(404 40)"><path d="M25 -8.1C28.7 3.1 25.2 16.5 16.5 22.9C7.8 29.3 -6.2 28.5 -16.5 21.3C-26.8 14.1 -33.5 0.5 -30.2 -10.2C-26.8 -21 -13.4 -28.8 -1.4 -28.4C10.7 -27.9 21.4 -19.2 25 -8.1Z" fill="#000000"></path></g><g transform="translate(645 256)"><path d="M57.3 -17.7C64.4 3.2 53.4 30.8 33.8 44.7C14.2 58.5 -14.1 58.4 -34.2 44.5C-54.2 30.5 -66 2.6 -59 -18.3C-51.9 -39.2 -25.9 -53.1 -0.4 -53C25.1 -52.9 50.2 -38.7 57.3 -17.7Z" fill="#000000"></path></g><g transform="translate(892 271)"><path d="M38.4 -11.3C43.3 2.7 36.4 21.7 23.4 30.8C10.4 39.9 -8.7 39.1 -21.1 29.9C-33.5 20.7 -39.3 3 -34.6 -10.5C-30 -24.1 -15 -33.6 0.9 -33.9C16.7 -34.2 33.5 -25.2 38.4 -11.3Z" fill="#000000"></path></g><g transform="translate(500 496)"><path d="M51.3 -16.6C57.8 3.1 48.2 28.1 30.8 40.3C13.4 52.4 -11.8 51.7 -27.2 39.9C-42.5 28.1 -48.1 5.3 -41.9 -14C-35.8 -33.3 -17.9 -49.3 2.3 -50C22.4 -50.7 44.9 -36.3 51.3 -16.6Z" fill="#000000"></path></g><g transform="translate(24 270)"><path d="M35.9 -11.7C40.6 2.6 34.2 20.5 22.1 29.1C9.9 37.7 -8.2 36.9 -21.1 27.8C-34 18.7 -41.7 1.3 -37.4 -12.7C-33 -26.7 -16.5 -37.3 -0.4 -37.1C15.6 -37 31.3 -26.1 35.9 -11.7Z" fill="#000000"></path></g></g></svg>