<svg id="visual" viewBox="0 0 900 600" width="900" height="600" xmlns="http://www.w3.org/2000/svg" xmlns:xlink="http://www.w3.org/1999/xlink" version="1.1"><rect x="0" y="0" width="900" height="600" fill="#001220"></rect><defs><linearGradient id="grad1_0" x1="33.3%" y1="0%" x2="100%" y2="100%"><stop offset="20%" stop-color="#001220" stop-opacity="1"></stop><stop offset="80%" stop-color="#001220" stop-opacity="1"></stop></linearGradient></defs><defs><linearGradient id="grad2_0" x1="0%" y1="0%" x2="66.7%" y2="100%"><stop offset="20%" stop-color="#001220" stop-opacity="1"></stop><stop offset="80%" stop-color="#001220" stop-opacity="1"></stop></linearGradient></defs><g transform="translate(900, 0)"><path d="M0 486.7C-55.8 466 -111.6 445.2 -176.8 426.8C-242 408.5 -316.7 392.5 -344.2 344.2C-371.6 295.8 -351.8 215.1 -367.7 152.3C-383.6 89.5 -435.2 44.8 -486.7 0L0 0Z" fill="#325B7C"></path></g><g transform="translate(0, 600)"><path d="M0 -486.7C70 -486.6 140.1 -486.5 186.3 -449.7C232.5 -412.9 254.9 -339.4 289.2 -289.2C323.5 -239 369.8 -211.9 404.7 -167.6C439.6 -123.3 463.2 -61.6 486.7 0L0 0Z" fill="#325B7C"></path></g></svg>