<svg id="visual" viewBox="0 0 900 600" width="900" height="600" xmlns="http://www.w3.org/2000/svg" xmlns:xlink="http://www.w3.org/1999/xlink" version="1.1"><path d="M460 0L689 86L716 171L571 257L434 343L676 429L675 514L694 600L0 600L0 514L0 429L0 343L0 257L0 171L0 86L0 0Z" fill="#70a1c9"></path><path d="M268 0L492 86L470 171L265 257L409 343L460 429L483 514L287 600L0 600L0 514L0 429L0 343L0 257L0 171L0 86L0 0Z" fill="#4d85b5"></path><path d="M121 0L115 86L301 171L278 257L208 343L160 429L188 514L120 600L0 600L0 514L0 429L0 343L0 257L0 171L0 86L0 0Z" fill="#266aa1"></path></svg>