<svg id="visual" viewBox="0 0 900 600" width="900" height="600" xmlns="http://www.w3.org/2000/svg" xmlns:xlink="http://www.w3.org/1999/xlink" version="1.1"><rect x="0" y="0" width="900" height="600" fill="#153a59"></rect><path d="M0 591L53 591L53 466L106 466L106 439L159 439L159 530L212 530L212 381L265 381L265 361L318 361L318 569L371 569L371 367L424 367L424 442L476 442L476 385L529 385L529 357L582 357L582 360L635 360L635 557L688 557L688 408L741 408L741 597L794 597L794 570L847 570L847 485L900 485L900 382L900 0L900 0L847 0L847 0L794 0L794 0L741 0L741 0L688 0L688 0L635 0L635 0L582 0L582 0L529 0L529 0L476 0L476 0L424 0L424 0L371 0L371 0L318 0L318 0L265 0L265 0L212 0L212 0L159 0L159 0L106 0L106 0L53 0L53 0L0 0Z" fill="#194a72"></path><path d="M0 382L53 382L53 395L106 395L106 406L159 406L159 385L212 385L212 494L265 494L265 418L318 418L318 490L371 490L371 533L424 533L424 440L476 440L476 362L529 362L529 504L582 504L582 329L635 329L635 543L688 543L688 543L741 543L741 396L794 396L794 521L847 521L847 367L900 367L900 367L900 0L900 0L847 0L847 0L794 0L794 0L741 0L741 0L688 0L688 0L635 0L635 0L582 0L582 0L529 0L529 0L476 0L476 0L424 0L424 0L371 0L371 0L318 0L318 0L265 0L265 0L212 0L212 0L159 0L159 0L106 0L106 0L53 0L53 0L0 0Z" fill="#18486f"></path><path d="M0 500L53 500L53 410L106 410L106 292L159 292L159 342L212 342L212 467L265 467L265 382L318 382L318 351L371 351L371 325L424 325L424 463L476 463L476 363L529 363L529 477L582 477L582 292L635 292L635 379L688 379L688 365L741 365L741 456L794 456L794 293L847 293L847 420L900 420L900 330L900 0L900 0L847 0L847 0L794 0L794 0L741 0L741 0L688 0L688 0L635 0L635 0L582 0L582 0L529 0L529 0L476 0L476 0L424 0L424 0L371 0L371 0L318 0L318 0L265 0L265 0L212 0L212 0L159 0L159 0L106 0L106 0L53 0L53 0L0 0Z" fill="#17466b"></path><path d="M0 430L53 430L53 360L106 360L106 297L159 297L159 346L212 346L212 368L265 368L265 304L318 304L318 374L371 374L371 352L424 352L424 311L476 311L476 323L529 323L529 312L582 312L582 353L635 353L635 408L688 408L688 312L741 312L741 440L794 440L794 315L847 315L847 432L900 432L900 438L900 0L900 0L847 0L847 0L794 0L794 0L741 0L741 0L688 0L688 0L635 0L635 0L582 0L582 0L529 0L529 0L476 0L476 0L424 0L424 0L371 0L371 0L318 0L318 0L265 0L265 0L212 0L212 0L159 0L159 0L106 0L106 0L53 0L53 0L0 0Z" fill="#164368"></path><path d="M0 276L53 276L53 412L106 412L106 317L159 317L159 383L212 383L212 231L265 231L265 327L318 327L318 286L371 286L371 247L424 247L424 410L476 410L476 411L529 411L529 231L582 231L582 227L635 227L635 385L688 385L688 393L741 393L741 261L794 261L794 322L847 322L847 248L900 248L900 301L900 0L900 0L847 0L847 0L794 0L794 0L741 0L741 0L688 0L688 0L635 0L635 0L582 0L582 0L529 0L529 0L476 0L476 0L424 0L424 0L371 0L371 0L318 0L318 0L265 0L265 0L212 0L212 0L159 0L159 0L106 0L106 0L53 0L53 0L0 0Z" fill="#154165"></path><path d="M0 354L53 354L53 288L106 288L106 195L159 195L159 348L212 348L212 199L265 199L265 327L318 327L318 224L371 224L371 327L424 327L424 366L476 366L476 273L529 273L529 342L582 342L582 270L635 270L635 294L688 294L688 330L741 330L741 294L794 294L794 265L847 265L847 275L900 275L900 286L900 0L900 0L847 0L847 0L794 0L794 0L741 0L741 0L688 0L688 0L635 0L635 0L582 0L582 0L529 0L529 0L476 0L476 0L424 0L424 0L371 0L371 0L318 0L318 0L265 0L265 0L212 0L212 0L159 0L159 0L106 0L106 0L53 0L53 0L0 0Z" fill="#143f62"></path><path d="M0 192L53 192L53 214L106 214L106 202L159 202L159 223L212 223L212 306L265 306L265 244L318 244L318 262L371 262L371 240L424 240L424 234L476 234L476 183L529 183L529 315L582 315L582 217L635 217L635 173L688 173L688 279L741 279L741 189L794 189L794 245L847 245L847 218L900 218L900 171L900 0L900 0L847 0L847 0L794 0L794 0L741 0L741 0L688 0L688 0L635 0L635 0L582 0L582 0L529 0L529 0L476 0L476 0L424 0L424 0L371 0L371 0L318 0L318 0L265 0L265 0L212 0L212 0L159 0L159 0L106 0L106 0L53 0L53 0L0 0Z" fill="#143d5e"></path><path d="M0 261L53 261L53 145L106 145L106 168L159 168L159 146L212 146L212 182L265 182L265 267L318 267L318 195L371 195L371 135L424 135L424 132L476 132L476 240L529 240L529 168L582 168L582 268L635 268L635 232L688 232L688 195L741 195L741 155L794 155L794 162L847 162L847 248L900 248L900 211L900 0L900 0L847 0L847 0L794 0L794 0L741 0L741 0L688 0L688 0L635 0L635 0L582 0L582 0L529 0L529 0L476 0L476 0L424 0L424 0L371 0L371 0L318 0L318 0L265 0L265 0L212 0L212 0L159 0L159 0L106 0L106 0L53 0L53 0L0 0Z" fill="#133b5b"></path><path d="M0 209L53 209L53 168L106 168L106 205L159 205L159 225L212 225L212 145L265 145L265 132L318 132L318 135L371 135L371 228L424 228L424 145L476 145L476 182L529 182L529 99L582 99L582 105L635 105L635 130L688 130L688 173L741 173L741 99L794 99L794 184L847 184L847 221L900 221L900 151L900 0L900 0L847 0L847 0L794 0L794 0L741 0L741 0L688 0L688 0L635 0L635 0L582 0L582 0L529 0L529 0L476 0L476 0L424 0L424 0L371 0L371 0L318 0L318 0L265 0L265 0L212 0L212 0L159 0L159 0L106 0L106 0L53 0L53 0L0 0Z" fill="#123858"></path><path d="M0 148L53 148L53 183L106 183L106 166L159 166L159 174L212 174L212 137L265 137L265 82L318 82L318 101L371 101L371 145L424 145L424 67L476 67L476 134L529 134L529 168L582 168L582 151L635 151L635 64L688 64L688 91L741 91L741 102L794 102L794 172L847 172L847 113L900 113L900 112L900 0L900 0L847 0L847 0L794 0L794 0L741 0L741 0L688 0L688 0L635 0L635 0L582 0L582 0L529 0L529 0L476 0L476 0L424 0L424 0L371 0L371 0L318 0L318 0L265 0L265 0L212 0L212 0L159 0L159 0L106 0L106 0L53 0L53 0L0 0Z" fill="#113654"></path><path d="M0 124L53 124L53 93L106 93L106 92L159 92L159 132L212 132L212 42L265 42L265 132L318 132L318 117L371 117L371 99L424 99L424 90L476 90L476 99L529 99L529 114L582 114L582 62L635 62L635 49L688 49L688 55L741 55L741 122L794 122L794 73L847 73L847 87L900 87L900 78L900 0L900 0L847 0L847 0L794 0L794 0L741 0L741 0L688 0L688 0L635 0L635 0L582 0L582 0L529 0L529 0L476 0L476 0L424 0L424 0L371 0L371 0L318 0L318 0L265 0L265 0L212 0L212 0L159 0L159 0L106 0L106 0L53 0L53 0L0 0Z" fill="#113451"></path><path d="M0 55L53 55L53 91L106 91L106 33L159 33L159 86L212 86L212 43L265 43L265 56L318 56L318 47L371 47L371 73L424 73L424 88L476 88L476 2L529 2L529 85L582 85L582 91L635 91L635 10L688 10L688 62L741 62L741 34L794 34L794 88L847 88L847 54L900 54L900 85L900 0L900 0L847 0L847 0L794 0L794 0L741 0L741 0L688 0L688 0L635 0L635 0L582 0L582 0L529 0L529 0L476 0L476 0L424 0L424 0L371 0L371 0L318 0L318 0L265 0L265 0L212 0L212 0L159 0L159 0L106 0L106 0L53 0L53 0L0 0Z" fill="#10324e"></path></svg>