<svg id="visual" viewBox="0 0 900 600" width="900" height="600" xmlns="http://www.w3.org/2000/svg" xmlns:xlink="http://www.w3.org/1999/xlink" version="1.1"><path d="M699 0L689.5 14.3C680 28.7 661 57.3 655.3 85.8C649.7 114.3 657.3 142.7 669 171.2C680.7 199.7 696.3 228.3 693.8 257C691.3 285.7 670.7 314.3 654 343C637.3 371.7 624.7 400.3 624.8 428.8C625 457.3 638 485.7 646.7 514.2C655.3 542.7 659.7 571.3 661.8 585.7L664 600L0 600L0 585.7C0 571.3 0 542.7 0 514.2C0 485.7 0 457.3 0 428.8C0 400.3 0 371.7 0 343C0 314.3 0 285.7 0 257C0 228.3 0 199.7 0 171.2C0 142.7 0 114.3 0 85.8C0 57.3 0 28.7 0 14.3L0 0Z" fill="#70a1c9"></path><path d="M631 0L645.2 14.3C659.3 28.7 687.7 57.3 681.3 85.8C675 114.3 634 142.7 625.3 171.2C616.7 199.7 640.3 228.3 635.3 257C630.3 285.7 596.7 314.3 603.8 343C611 371.7 659 400.3 674 428.8C689 457.3 671 485.7 656.8 514.2C642.7 542.7 632.3 571.3 627.2 585.7L622 600L0 600L0 585.7C0 571.3 0 542.7 0 514.2C0 485.7 0 457.3 0 428.8C0 400.3 0 371.7 0 343C0 314.3 0 285.7 0 257C0 228.3 0 199.7 0 171.2C0 142.7 0 114.3 0 85.8C0 57.3 0 28.7 0 14.3L0 0Z" fill="#6a9ac2"></path><path d="M553 0L571.2 14.3C589.3 28.7 625.7 57.3 612.5 85.8C599.3 114.3 536.7 142.7 512.2 171.2C487.7 199.7 501.3 228.3 524 257C546.7 285.7 578.3 314.3 583.5 343C588.7 371.7 567.3 400.3 550.3 428.8C533.3 457.3 520.7 485.7 517.2 514.2C513.7 542.7 519.3 571.3 522.2 585.7L525 600L0 600L0 585.7C0 571.3 0 542.7 0 514.2C0 485.7 0 457.3 0 428.8C0 400.3 0 371.7 0 343C0 314.3 0 285.7 0 257C0 228.3 0 199.7 0 171.2C0 142.7 0 114.3 0 85.8C0 57.3 0 28.7 0 14.3L0 0Z" fill="#6594bb"></path><path d="M540 0L541.3 14.3C542.7 28.7 545.3 57.3 531.3 85.8C517.3 114.3 486.7 142.7 478.5 171.2C470.3 199.7 484.7 228.3 505.3 257C526 285.7 553 314.3 554.2 343C555.3 371.7 530.7 400.3 512.3 428.8C494 457.3 482 485.7 481.7 514.2C481.3 542.7 492.7 571.3 498.3 585.7L504 600L0 600L0 585.7C0 571.3 0 542.7 0 514.2C0 485.7 0 457.3 0 428.8C0 400.3 0 371.7 0 343C0 314.3 0 285.7 0 257C0 228.3 0 199.7 0 171.2C0 142.7 0 114.3 0 85.8C0 57.3 0 28.7 0 14.3L0 0Z" fill="#5f8db4"></path><path d="M410 0L429.3 14.3C448.7 28.7 487.3 57.3 486.8 85.8C486.3 114.3 446.7 142.7 447.7 171.2C448.7 199.7 490.3 228.3 501.2 257C512 285.7 492 314.3 467.3 343C442.7 371.7 413.3 400.3 410.7 428.8C408 457.3 432 485.7 441.7 514.2C451.3 542.7 446.7 571.3 444.3 585.7L442 600L0 600L0 585.7C0 571.3 0 542.7 0 514.2C0 485.7 0 457.3 0 428.8C0 400.3 0 371.7 0 343C0 314.3 0 285.7 0 257C0 228.3 0 199.7 0 171.2C0 142.7 0 114.3 0 85.8C0 57.3 0 28.7 0 14.3L0 0Z" fill="#5987ac"></path><path d="M432 0L420.7 14.3C409.3 28.7 386.7 57.3 378.2 85.8C369.7 114.3 375.3 142.7 392.5 171.2C409.7 199.7 438.3 228.3 432.2 257C426 285.7 385 314.3 379 343C373 371.7 402 400.3 410.3 428.8C418.7 457.3 406.3 485.7 400 514.2C393.7 542.7 393.3 571.3 393.2 585.7L393 600L0 600L0 585.7C0 571.3 0 542.7 0 514.2C0 485.7 0 457.3 0 428.8C0 400.3 0 371.7 0 343C0 314.3 0 285.7 0 257C0 228.3 0 199.7 0 171.2C0 142.7 0 114.3 0 85.8C0 57.3 0 28.7 0 14.3L0 0Z" fill="#5480a5"></path><path d="M384 0L374 14.3C364 28.7 344 57.3 332.8 85.8C321.7 114.3 319.3 142.7 326.8 171.2C334.3 199.7 351.7 228.3 346 257C340.3 285.7 311.7 314.3 315.8 343C320 371.7 357 400.3 362.7 428.8C368.3 457.3 342.7 485.7 346.3 514.2C350 542.7 383 571.3 399.5 585.7L416 600L0 600L0 585.7C0 571.3 0 542.7 0 514.2C0 485.7 0 457.3 0 428.8C0 400.3 0 371.7 0 343C0 314.3 0 285.7 0 257C0 228.3 0 199.7 0 171.2C0 142.7 0 114.3 0 85.8C0 57.3 0 28.7 0 14.3L0 0Z" fill="#4e7a9e"></path><path d="M329 0L318.7 14.3C308.3 28.7 287.7 57.3 277.5 85.8C267.3 114.3 267.7 142.7 280.2 171.2C292.7 199.7 317.3 228.3 328.7 257C340 285.7 338 314.3 335.7 343C333.3 371.7 330.7 400.3 333.5 428.8C336.3 457.3 344.7 485.7 347 514.2C349.3 542.7 345.7 571.3 343.8 585.7L342 600L0 600L0 585.7C0 571.3 0 542.7 0 514.2C0 485.7 0 457.3 0 428.8C0 400.3 0 371.7 0 343C0 314.3 0 285.7 0 257C0 228.3 0 199.7 0 171.2C0 142.7 0 114.3 0 85.8C0 57.3 0 28.7 0 14.3L0 0Z" fill="#497497"></path><path d="M255 0L253.8 14.3C252.7 28.7 250.3 57.3 249.2 85.8C248 114.3 248 142.7 244.3 171.2C240.7 199.7 233.3 228.3 227.3 257C221.3 285.7 216.7 314.3 218.8 343C221 371.7 230 400.3 240.2 428.8C250.3 457.3 261.7 485.7 258.8 514.2C256 542.7 239 571.3 230.5 585.7L222 600L0 600L0 585.7C0 571.3 0 542.7 0 514.2C0 485.7 0 457.3 0 428.8C0 400.3 0 371.7 0 343C0 314.3 0 285.7 0 257C0 228.3 0 199.7 0 171.2C0 142.7 0 114.3 0 85.8C0 57.3 0 28.7 0 14.3L0 0Z" fill="#436d91"></path><path d="M216 0L207.5 14.3C199 28.7 182 57.3 181 85.8C180 114.3 195 142.7 197.5 171.2C200 199.7 190 228.3 192.7 257C195.3 285.7 210.7 314.3 209.7 343C208.7 371.7 191.3 400.3 176.2 428.8C161 457.3 148 485.7 146 514.2C144 542.7 153 571.3 157.5 585.7L162 600L0 600L0 585.7C0 571.3 0 542.7 0 514.2C0 485.7 0 457.3 0 428.8C0 400.3 0 371.7 0 343C0 314.3 0 285.7 0 257C0 228.3 0 199.7 0 171.2C0 142.7 0 114.3 0 85.8C0 57.3 0 28.7 0 14.3L0 0Z" fill="#3d678a"></path><path d="M119 0L120.3 14.3C121.7 28.7 124.3 57.3 125 85.8C125.7 114.3 124.3 142.7 117.5 171.2C110.7 199.7 98.3 228.3 104.8 257C111.3 285.7 136.7 314.3 143.5 343C150.3 371.7 138.7 400.3 135.8 428.8C133 457.3 139 485.7 132.2 514.2C125.3 542.7 105.7 571.3 95.8 585.7L86 600L0 600L0 585.7C0 571.3 0 542.7 0 514.2C0 485.7 0 457.3 0 428.8C0 400.3 0 371.7 0 343C0 314.3 0 285.7 0 257C0 228.3 0 199.7 0 171.2C0 142.7 0 114.3 0 85.8C0 57.3 0 28.7 0 14.3L0 0Z" fill="#386183"></path><path d="M79 0L74.7 14.3C70.3 28.7 61.7 57.3 61 85.8C60.3 114.3 67.7 142.7 70.3 171.2C73 199.7 71 228.3 68.5 257C66 285.7 63 314.3 61.3 343C59.7 371.7 59.3 400.3 64.3 428.8C69.3 457.3 79.7 485.7 77.3 514.2C75 542.7 60 571.3 52.5 585.7L45 600L0 600L0 585.7C0 571.3 0 542.7 0 514.2C0 485.7 0 457.3 0 428.8C0 400.3 0 371.7 0 343C0 314.3 0 285.7 0 257C0 228.3 0 199.7 0 171.2C0 142.7 0 114.3 0 85.8C0 57.3 0 28.7 0 14.3L0 0Z" fill="#325b7c"></path></svg>