<svg id="visual" viewBox="0 0 900 600" width="900" height="600" xmlns="http://www.w3.org/2000/svg" xmlns:xlink="http://www.w3.org/1999/xlink" version="1.1"><g stroke-width="1" stroke-linejoin="bevel"><path d="M464 255L519 183L426 200Z" fill="#00101c" stroke="#00101c"></path><path d="M485 72L393 124L426 200Z" fill="#082133" stroke="#082133"></path><path d="M519 183L485 72L426 200Z" fill="#00101c" stroke="#00101c"></path><path d="M464 255L578 309L519 183Z" fill="#082133" stroke="#082133"></path><path d="M519 183L635 77L485 72Z" fill="#113b5a" stroke="#113b5a"></path><path d="M426 200L358 318L464 255Z" fill="#082133" stroke="#082133"></path><path d="M464 255L510 402L578 309Z" fill="#061927" stroke="#061927"></path><path d="M288 195L358 318L426 200Z" fill="#154468" stroke="#154468"></path><path d="M578 309L636 173L519 183Z" fill="#216092" stroke="#216092"></path><path d="M393 124L288 195L426 200Z" fill="#113b5a" stroke="#113b5a"></path><path d="M358 318L510 402L464 255Z" fill="#184d76" stroke="#184d76"></path><path d="M636 173L635 77L519 183Z" fill="#113b5a" stroke="#113b5a"></path><path d="M585 0L465 0L485 72Z" fill="#216092" stroke="#216092"></path><path d="M485 72L368 0L393 124Z" fill="#184d76" stroke="#184d76"></path><path d="M393 124L288 78L288 195Z" fill="#266aa1" stroke="#266aa1"></path><path d="M578 309L694 218L636 173Z" fill="#082133" stroke="#082133"></path><path d="M636 173L709 61L635 77Z" fill="#061927" stroke="#061927"></path><path d="M720 297L694 218L578 309Z" fill="#00101c" stroke="#00101c"></path><path d="M510 402L605 393L578 309Z" fill="#154468" stroke="#154468"></path><path d="M368 0L288 78L393 124Z" fill="#0b2a40" stroke="#0b2a40"></path><path d="M228 238L279 328L288 195Z" fill="#082133" stroke="#082133"></path><path d="M288 195L279 328L358 318Z" fill="#184d76" stroke="#184d76"></path><path d="M358 318L387 429L510 402Z" fill="#00101c" stroke="#00101c"></path><path d="M465 0L368 0L485 72Z" fill="#0e324d" stroke="#0e324d"></path><path d="M635 77L585 0L485 72Z" fill="#0e324d" stroke="#0e324d"></path><path d="M298 380L387 429L358 318Z" fill="#082133" stroke="#082133"></path><path d="M510 402L571 492L605 393Z" fill="#082133" stroke="#082133"></path><path d="M279 328L298 380L358 318Z" fill="#061927" stroke="#061927"></path><path d="M221 124L228 238L288 195Z" fill="#113b5a" stroke="#113b5a"></path><path d="M279 328L243 443L298 380Z" fill="#1d5784" stroke="#1d5784"></path><path d="M701 367L720 297L578 309Z" fill="#266aa1" stroke="#266aa1"></path><path d="M239 0L221 124L288 78Z" fill="#1d5784" stroke="#1d5784"></path><path d="M288 78L221 124L288 195Z" fill="#266aa1" stroke="#266aa1"></path><path d="M101 281L217 301L228 238Z" fill="#113b5a" stroke="#113b5a"></path><path d="M228 238L217 301L279 328Z" fill="#113b5a" stroke="#113b5a"></path><path d="M694 218L709 61L636 173Z" fill="#0b2a40" stroke="#0b2a40"></path><path d="M635 77L721 0L585 0Z" fill="#0b2a40" stroke="#0b2a40"></path><path d="M793 144L709 61L694 218Z" fill="#082133" stroke="#082133"></path><path d="M605 393L701 367L578 309Z" fill="#0b2a40" stroke="#0b2a40"></path><path d="M369 477L476 486L387 429Z" fill="#216092" stroke="#216092"></path><path d="M387 429L476 486L510 402Z" fill="#0e324d" stroke="#0e324d"></path><path d="M605 393L700 465L701 367Z" fill="#061927" stroke="#061927"></path><path d="M368 0L280 0L288 78Z" fill="#082133" stroke="#082133"></path><path d="M255 475L369 477L298 380Z" fill="#0b2a40" stroke="#0b2a40"></path><path d="M298 380L369 477L387 429Z" fill="#1d5784" stroke="#1d5784"></path><path d="M812 260L769 234L720 297Z" fill="#184d76" stroke="#184d76"></path><path d="M720 297L769 234L694 218Z" fill="#266aa1" stroke="#266aa1"></path><path d="M476 486L571 492L510 402Z" fill="#113b5a" stroke="#113b5a"></path><path d="M280 0L239 0L288 78Z" fill="#082133" stroke="#082133"></path><path d="M841 0L721 0L709 61Z" fill="#0b2a40" stroke="#0b2a40"></path><path d="M709 61L721 0L635 77Z" fill="#00101c" stroke="#00101c"></path><path d="M769 234L793 144L694 218Z" fill="#0b2a40" stroke="#0b2a40"></path><path d="M217 301L243 443L279 328Z" fill="#1d5784" stroke="#1d5784"></path><path d="M794 421L812 260L720 297Z" fill="#082133" stroke="#082133"></path><path d="M769 234L812 260L793 144Z" fill="#0b2a40" stroke="#0b2a40"></path><path d="M571 492L700 465L605 393Z" fill="#184d76" stroke="#184d76"></path><path d="M701 367L794 421L720 297Z" fill="#113b5a" stroke="#113b5a"></path><path d="M243 443L255 475L298 380Z" fill="#216092" stroke="#216092"></path><path d="M369 477L439 600L476 486Z" fill="#0b2a40" stroke="#0b2a40"></path><path d="M476 486L514 600L571 492Z" fill="#061927" stroke="#061927"></path><path d="M89 78L125 187L221 124Z" fill="#184d76" stroke="#184d76"></path><path d="M221 124L125 187L228 238Z" fill="#082133" stroke="#082133"></path><path d="M217 301L106 434L243 443Z" fill="#0b2a40" stroke="#0b2a40"></path><path d="M243 443L199 525L255 475Z" fill="#0e324d" stroke="#0e324d"></path><path d="M125 187L101 281L228 238Z" fill="#1d5784" stroke="#1d5784"></path><path d="M700 465L794 421L701 367Z" fill="#216092" stroke="#216092"></path><path d="M264 600L439 600L369 477Z" fill="#061927" stroke="#061927"></path><path d="M639 600L755 525L700 465Z" fill="#0b2a40" stroke="#0b2a40"></path><path d="M700 465L755 525L794 421Z" fill="#266aa1" stroke="#266aa1"></path><path d="M439 600L514 600L476 486Z" fill="#113b5a" stroke="#113b5a"></path><path d="M239 0L89 78L221 124Z" fill="#061927" stroke="#061927"></path><path d="M125 187L0 242L101 281Z" fill="#061927" stroke="#061927"></path><path d="M793 144L841 0L709 61Z" fill="#1d5784" stroke="#1d5784"></path><path d="M900 66L841 0L793 144Z" fill="#266aa1" stroke="#266aa1"></path><path d="M106 434L199 525L243 443Z" fill="#154468" stroke="#154468"></path><path d="M255 475L264 600L369 477Z" fill="#082133" stroke="#082133"></path><path d="M639 600L700 465L571 492Z" fill="#1d5784" stroke="#1d5784"></path><path d="M900 268L900 188L812 260Z" fill="#113b5a" stroke="#113b5a"></path><path d="M812 260L900 188L793 144Z" fill="#266aa1" stroke="#266aa1"></path><path d="M900 268L812 260L900 392Z" fill="#00101c" stroke="#00101c"></path><path d="M514 600L639 600L571 492Z" fill="#184d76" stroke="#184d76"></path><path d="M900 392L812 260L794 421Z" fill="#0b2a40" stroke="#0b2a40"></path><path d="M99 471L106 434L0 477Z" fill="#113b5a" stroke="#113b5a"></path><path d="M101 281L106 434L217 301Z" fill="#113b5a" stroke="#113b5a"></path><path d="M239 0L93 0L89 78Z" fill="#0b2a40" stroke="#0b2a40"></path><path d="M227 600L264 600L199 525Z" fill="#154468" stroke="#154468"></path><path d="M199 525L264 600L255 475Z" fill="#1d5784" stroke="#1d5784"></path><path d="M900 188L900 66L793 144Z" fill="#00101c" stroke="#00101c"></path><path d="M0 368L106 434L101 281Z" fill="#061927" stroke="#061927"></path><path d="M106 434L99 471L199 525Z" fill="#061927" stroke="#061927"></path><path d="M900 462L900 392L794 421Z" fill="#0e324d" stroke="#0e324d"></path><path d="M97 600L227 600L199 525Z" fill="#184d76" stroke="#184d76"></path><path d="M900 66L900 0L841 0Z" fill="#154468" stroke="#154468"></path><path d="M639 600L742 600L755 525Z" fill="#1d5784" stroke="#1d5784"></path><path d="M755 525L900 462L794 421Z" fill="#00101c" stroke="#00101c"></path><path d="M0 111L0 242L125 187Z" fill="#266aa1" stroke="#266aa1"></path><path d="M0 111L125 187L89 78Z" fill="#154468" stroke="#154468"></path><path d="M0 242L0 266L101 281Z" fill="#216092" stroke="#216092"></path><path d="M0 0L0 111L89 78Z" fill="#0b2a40" stroke="#0b2a40"></path><path d="M900 600L900 462L755 525Z" fill="#0b2a40" stroke="#0b2a40"></path><path d="M742 600L778 600L755 525Z" fill="#082133" stroke="#082133"></path><path d="M0 266L0 368L101 281Z" fill="#113b5a" stroke="#113b5a"></path><path d="M93 0L0 0L89 78Z" fill="#113b5a" stroke="#113b5a"></path><path d="M99 471L97 600L199 525Z" fill="#216092" stroke="#216092"></path><path d="M0 477L97 600L99 471Z" fill="#0b2a40" stroke="#0b2a40"></path><path d="M0 368L0 477L106 434Z" fill="#113b5a" stroke="#113b5a"></path><path d="M778 600L900 600L755 525Z" fill="#00101c" stroke="#00101c"></path><path d="M0 477L0 600L97 600Z" fill="#113b5a" stroke="#113b5a"></path></g></svg>