<svg id="visual" viewBox="0 0 900 600" width="900" height="600" xmlns="http://www.w3.org/2000/svg" xmlns:xlink="http://www.w3.org/1999/xlink" version="1.1"><path d="M683 600L863 574L800 548L746 522L692 496L674 470L899 443L863 417L773 391L584 365L809 339L773 313L791 287L854 261L773 235L764 209L818 183L863 157L800 130L845 104L629 78L611 52L782 26L845 0L900 0L900 26L900 52L900 78L900 104L900 130L900 157L900 183L900 209L900 235L900 261L900 287L900 313L900 339L900 365L900 391L900 417L900 443L900 470L900 496L900 522L900 548L900 574L900 600Z" fill="#70a1c9"></path><path d="M575 600L746 574L782 548L638 522L647 496L557 470L899 443L791 417L665 391L566 365L773 339L692 313L773 287L827 261L746 235L755 209L773 183L854 157L710 130L809 104L539 78L530 52L701 26L728 0L846 0L783 26L612 52L630 78L846 104L801 130L864 157L819 183L765 209L774 235L855 261L792 287L774 313L810 339L585 365L774 391L864 417L900 443L675 470L693 496L747 522L801 548L864 574L684 600Z" fill="#578dbb"></path><path d="M422 600L566 574L332 548L377 522L314 496L548 470L827 443L395 417L638 391L539 365L656 339L503 313L503 287L782 261L503 235L368 209L647 183L314 157L602 130L476 104L296 78L305 52L386 26L404 0L729 0L702 26L531 52L540 78L810 104L711 130L855 157L774 183L756 209L747 235L828 261L774 287L693 313L774 339L567 365L666 391L792 417L900 443L558 470L648 496L639 522L783 548L747 574L576 600Z" fill="#3d79ac"></path><path d="M332 600L458 574L215 548L323 522L197 496L440 470L764 443L350 417L593 391L476 365L602 339L431 313L377 287L782 261L467 235L368 209L611 183L278 157L566 130L413 104L287 78L287 52L296 26L404 0L405 0L387 26L306 52L297 78L477 104L603 130L315 157L648 183L369 209L504 235L783 261L504 287L504 313L657 339L540 365L639 391L396 417L828 443L549 470L315 496L378 522L333 548L567 574L423 600Z" fill="#266aa1"></path><path d="M251 600L296 574L188 548L305 522L143 496L341 470L557 443L206 417L575 391L413 365L449 339L422 313L305 287L647 261L395 235L161 209L476 183L233 157L467 130L242 104L251 78L197 52L197 26L242 0L405 0L297 26L288 52L288 78L414 104L567 130L279 157L612 183L369 209L468 235L783 261L378 287L432 313L603 339L477 365L594 391L351 417L765 443L441 470L198 496L324 522L216 548L459 574L333 600Z" fill="#266aa1"></path><path d="M188 600L224 574L179 548L251 522L98 496L242 470L548 443L89 417L422 391L368 365L395 339L251 313L170 287L584 261L251 235L80 209L314 183L197 157L377 130L215 104L161 78L188 52L98 26L62 0L243 0L198 26L198 52L252 78L243 104L468 130L234 157L477 183L162 209L396 235L648 261L306 287L423 313L450 339L414 365L576 391L207 417L558 443L342 470L144 496L306 522L189 548L297 574L252 600Z" fill="#3d79ac"></path><path d="M89 600L80 574L35 548L53 522L8 496L0 470L62 443L80 417L89 391L35 365L98 339L8 313L134 287L8 261L8 235L62 209L107 183L53 157L80 130L89 104L26 78L17 52L53 26L8 0L63 0L99 26L189 52L162 78L216 104L378 130L198 157L315 183L81 209L252 235L585 261L171 287L252 313L396 339L369 365L423 391L90 417L549 443L243 470L99 496L252 522L180 548L225 574L189 600Z" fill="#578dbb"></path><path d="M0 600L0 574L0 548L0 522L0 496L0 470L0 443L0 417L0 391L0 365L0 339L0 313L0 287L0 261L0 235L0 209L0 183L0 157L0 130L0 104L0 78L0 52L0 26L0 0L9 0L54 26L18 52L27 78L90 104L81 130L54 157L108 183L63 209L9 235L9 261L135 287L9 313L99 339L36 365L90 391L81 417L63 443L0 470L9 496L54 522L36 548L81 574L90 600Z" fill="#70a1c9"></path></svg>