<svg width="24" height="24" viewBox="0 0 24 24" fill="none" xmlns="http://www.w3.org/2000/svg">
<path d="M20.3303 4.92375C18.7767 4.25862 17.1156 3.77524 15.3789 3.5C15.1656 3.85285 14.9164 4.32744 14.7446 4.70498C12.8985 4.45093 11.0693 4.45093 9.25716 4.70498C9.08539 4.32744 8.83055 3.85285 8.61536 3.5C6.87681 3.77524 5.21376 4.2604 3.66019 4.92727C0.526643 9.26019 -0.322811 13.4855 0.101917 17.6508C2.18025 19.071 4.19441 19.9337 6.17457 20.4983C6.66349 19.8825 7.09953 19.228 7.47518 18.5382C6.75975 18.2895 6.07453 17.9825 5.42707 17.6261C5.59884 17.5097 5.76686 17.3879 5.92918 17.2627C9.87819 18.9528 14.1689 18.9528 18.0707 17.2627C18.235 17.3879 18.403 17.5097 18.5728 17.6261C17.9235 17.9842 17.2364 18.2912 16.521 18.54C16.8966 19.228 17.3308 19.8843 17.8216 20.5C19.8036 19.9355 21.8197 19.0728 23.898 17.6508C24.3964 12.8221 23.0467 8.63565 20.3303 4.92375ZM8.01318 15.0892C6.82772 15.0892 5.85555 14.0765 5.85555 12.8433C5.85555 11.6101 6.80696 10.5957 8.01318 10.5957C9.21942 10.5957 10.1916 11.6083 10.1708 12.8433C10.1727 14.0765 9.21942 15.0892 8.01318 15.0892ZM15.9867 15.0892C14.8013 15.0892 13.8291 14.0765 13.8291 12.8433C13.8291 11.6101 14.7805 10.5957 15.9867 10.5957C17.193 10.5957 18.1651 11.6083 18.1444 12.8433C18.1444 14.0765 17.193 15.0892 15.9867 15.0892Z" fill="white"/>
</svg>
